# xmcd
# 
# Track frame offsets:
#     150
#     22888
#     42963
#     67477
#     89488
#     106474
#     132988
#     151801
#     175895
#     196604
#     217334
# 
# Disc length: 3284
# 
# Revision: 3
# Processed by: cddbd v1.5.2PL0 Copyright (c) Steve Scherf et al.
# Submitted via: fre:ac v1.0.31
# 
DISCID=9c0cd20b
DTITLE=Omar and The Howlers - Boogie Man
DYEAR=2003
DGENRE=Blues
TTITLE0=Boogie Man
TTITLE1=Bamboozled
TTITLE2=Stone Cold Blues
TTITLE3=White Crosses
TTITLE4=Drowning In Love
TTITLE5=Shakin'
TTITLE6=Right There In The Rain
TTITLE7=Bad In A Good Way
TTITLE8=That's Just My Life
TTITLE9=Mississippi Mud
TTITLE10=All The Love We Can Stand
EXTD=Label: Ruf Records GmbH\nRuf 1093
EXTT0=
EXTT1=
EXTT2=
EXTT3=
EXTT4=
EXTT5=
EXTT6=
EXTT7=
EXTT8=
EXTT9=
EXTT10=
PLAYORDER=
